<?xml version="1.0" encoding="utf-8"?>
<!-- Generator: Adobe Illustrator 17.0.0, SVG Export Plug-In . SVG Version: 6.00 Build 0)  -->
<!DOCTYPE svg PUBLIC "-//W3C//DTD SVG 1.1//EN" "http://www.w3.org/Graphics/SVG/1.1/DTD/svg11.dtd">
<svg version="1.1" id="Capa_1" xmlns="http://www.w3.org/2000/svg" xmlns:xlink="http://www.w3.org/1999/xlink" x="0px" y="0px"
	 width="193.025px" height="47.66px" viewBox="0 0 193.025 47.66" enable-background="new 0 0 193.025 47.66" xml:space="preserve">
<path fill="#FFFFFF" stroke="#67C0EF" stroke-width="1.8" stroke-linecap="round" stroke-linejoin="round" stroke-miterlimit="10" d="
	M164.335,9.88c0-4.91,4-8.88,8.92-8.88c4.93,0,8.93,3.97,8.93,8.88c0,4.9-4,8.88-8.93,8.88
	C168.335,18.76,164.335,14.78,164.335,9.88z"/>
<path fill="#FFFFFF" stroke="#67C0EF" stroke-width="1.8" stroke-linecap="round" stroke-linejoin="round" stroke-miterlimit="10" d="
	M105.115,9.88c0-4.91,3.99-8.88,8.92-8.88c4.92,0,8.92,3.97,8.92,8.88c0,4.9-4,8.88-8.92,8.88
	C109.105,18.76,105.115,14.78,105.115,9.88z"/>
<path fill="#FFFFFF" stroke="#288FD4" stroke-width="1.8" stroke-linecap="round" stroke-linejoin="round" stroke-miterlimit="10" d="
	M85.365,9.88c0-4.91,4-8.88,8.92-8.88c4.93,0,8.93,3.97,8.93,8.88c0,4.9-4,8.88-8.93,8.88C89.365,18.76,85.365,14.78,85.365,9.88z"
	/>
<path fill="#FFFFFF" stroke="#67C0EF" stroke-width="1.8" stroke-linecap="round" stroke-linejoin="round" stroke-miterlimit="10" d="
	M45.885,9.88c0-4.91,3.99-8.88,8.92-8.88s8.92,3.97,8.92,8.88c0,4.9-3.99,8.88-8.92,8.88S45.885,14.78,45.885,9.88z"/>
<path fill="#FFFFFF" stroke="#3AA2DB" stroke-width="1.8" stroke-linecap="round" stroke-linejoin="round" stroke-miterlimit="10" d="
	M6.395,9.88c0-4.91,4-8.88,8.92-8.88c4.93,0,8.93,3.97,8.93,8.88c0,4.9-4,8.88-8.93,8.88C10.395,18.76,6.395,14.78,6.395,9.88z"/>
<g>
	
		<path fill="#FFFFFF" stroke="#67C0EF" stroke-width="1.8" stroke-linecap="round" stroke-linejoin="round" stroke-miterlimit="10" d="
		M194.715,17.43c0-4.9,3.99-8.87,8.92-8.87s8.92,3.97,8.92,8.87c0,4.91-3.99,8.88-8.92,8.88S194.715,22.34,194.715,17.43z"/>
	
		<path fill="#FFFFFF" stroke="#288FD4" stroke-width="1.8" stroke-linecap="round" stroke-linejoin="round" stroke-miterlimit="10" d="
		M174.965,17.43c0-4.9,4-8.87,8.93-8.87c4.92,0,8.92,3.97,8.92,8.87c0,4.91-4,8.88-8.92,8.88
		C178.965,26.31,174.965,22.34,174.965,17.43z"/>
	
		<path fill="#FFFFFF" stroke="#3AA2DB" stroke-width="1.8" stroke-linecap="round" stroke-linejoin="round" stroke-miterlimit="10" d="
		M155.225,17.43c0-4.9,4-8.87,8.92-8.87c4.93,0,8.92,3.97,8.92,8.87c0,4.91-3.99,8.88-8.92,8.88
		C159.225,26.31,155.225,22.34,155.225,17.43z"/>
</g>
<path fill="#FFFFFF" stroke="#288FD4" stroke-width="1.8" stroke-linecap="round" stroke-linejoin="round" stroke-miterlimit="10" d="
	M115.745,17.43c0-4.9,3.99-8.87,8.92-8.87c4.93,0,8.92,3.97,8.92,8.87c0,4.91-3.99,8.88-8.92,8.88
	C119.735,26.31,115.745,22.34,115.745,17.43z"/>
<path fill="#FFFFFF" stroke="#3AA2DB" stroke-width="1.8" stroke-linecap="round" stroke-linejoin="round" stroke-miterlimit="10" d="
	M95.995,17.43c0-4.9,4-8.87,8.93-8.87c4.92,0,8.92,3.97,8.92,8.87c0,4.91-4,8.88-8.92,8.88C99.995,26.31,95.995,22.34,95.995,17.43z
	"/>
<path fill="#FFFFFF" stroke="#67C0EF" stroke-width="1.8" stroke-linecap="round" stroke-linejoin="round" stroke-miterlimit="10" d="
	M76.255,17.43c0-4.9,4-8.87,8.92-8.87c4.93,0,8.92,3.97,8.92,8.87c0,4.91-3.99,8.88-8.92,8.88
	C80.255,26.31,76.255,22.34,76.255,17.43z"/>
<path fill="#FFFFFF" stroke="#288FD4" stroke-width="1.8" stroke-linecap="round" stroke-linejoin="round" stroke-miterlimit="10" d="
	M56.515,17.43c0-4.9,3.99-8.87,8.92-8.87s8.92,3.97,8.92,8.87c0,4.91-3.99,8.88-8.92,8.88S56.515,22.34,56.515,17.43z"/>
<path fill="#FFFFFF" stroke="#67C0EF" stroke-width="1.8" stroke-linecap="round" stroke-linejoin="round" stroke-miterlimit="10" d="
	M17.025,17.43c0-4.9,4-8.87,8.93-8.87c4.92,0,8.92,3.97,8.92,8.87c0,4.91-4,8.88-8.92,8.88C21.025,26.31,17.025,22.34,17.025,17.43z
	"/>
<path fill="#FFFFFF" stroke="#288FD4" stroke-width="1.8" stroke-linecap="round" stroke-linejoin="round" stroke-miterlimit="10" d="
	M183.685,24.99c0-4.9,4-8.88,8.93-8.88c4.92,0,8.92,3.98,8.92,8.88s-4,8.88-8.92,8.88C187.685,33.87,183.685,29.89,183.685,24.99z"
	/>
<path fill="#FFFFFF" stroke="#67C0EF" stroke-width="1.8" stroke-linecap="round" stroke-linejoin="round" stroke-miterlimit="10" d="
	M164.335,24.99c0-4.9,4-8.88,8.92-8.88c4.93,0,8.93,3.98,8.93,8.88s-4,8.88-8.93,8.88C168.335,33.87,164.335,29.89,164.335,24.99z"
	/>
<path fill="#FFFFFF" stroke="#288FD4" stroke-width="1.8" stroke-linecap="round" stroke-linejoin="round" stroke-miterlimit="10" d="
	M144.595,24.99c0-4.9,3.99-8.88,8.92-8.88s8.92,3.98,8.92,8.88s-3.99,8.88-8.92,8.88S144.595,29.89,144.595,24.99z"/>
<path fill="#FFFFFF" stroke="#3AA2DB" stroke-width="1.8" stroke-linecap="round" stroke-linejoin="round" stroke-miterlimit="10" d="
	M124.855,24.99c0-4.9,3.99-8.88,8.92-8.88s8.92,3.98,8.92,8.88s-3.99,8.88-8.92,8.88C128.845,33.87,124.855,29.89,124.855,24.99z"/>
<path fill="#FFFFFF" stroke="#288FD4" stroke-width="1.8" stroke-linecap="round" stroke-linejoin="round" stroke-miterlimit="10" d="
	M203.035,24.99c0-4.9,4-8.88,8.93-8.88c4.92,0,8.92,3.98,8.92,8.88s-4,8.88-8.92,8.88C207.035,33.87,203.035,29.89,203.035,24.99z"
	/>
<path fill="#FFFFFF" stroke="#3AA2DB" stroke-width="1.8" stroke-linecap="round" stroke-linejoin="round" stroke-miterlimit="10" d="
	M-21.195,17.43c0-4.9,4-8.87,8.92-8.87c4.93,0,8.93,3.97,8.93,8.87c0,4.91-4,8.88-8.93,8.88
	C-17.195,26.31-21.195,22.34-21.195,17.43z"/>
<path fill="#FFFFFF" stroke="#3AA2DB" stroke-width="1.8" stroke-linecap="round" stroke-linejoin="round" stroke-miterlimit="10" d="
	M-2.745,17.43c0-4.9,4-8.87,8.92-8.87c4.93,0,8.93,3.97,8.93,8.87c0,4.91-4,8.88-8.93,8.88C1.255,26.31-2.745,22.34-2.745,17.43z"/>
<g>
	
		<path fill="#FFFFFF" stroke="#67C0EF" stroke-width="1.8" stroke-linecap="round" stroke-linejoin="round" stroke-miterlimit="10" d="
		M105.115,24.99c0-4.9,3.99-8.88,8.92-8.88c4.92,0,8.92,3.98,8.92,8.88s-4,8.88-8.92,8.88
		C109.105,33.87,105.115,29.89,105.115,24.99z"/>
	
		<path fill="#FFFFFF" stroke="#288FD4" stroke-width="1.8" stroke-linecap="round" stroke-linejoin="round" stroke-miterlimit="10" d="
		M85.365,24.99c0-4.9,4-8.88,8.92-8.88c4.93,0,8.93,3.98,8.93,8.88s-4,8.88-8.93,8.88C89.365,33.87,85.365,29.89,85.365,24.99z"/>
	
		<path fill="#FFFFFF" stroke="#3AA2DB" stroke-width="1.8" stroke-linecap="round" stroke-linejoin="round" stroke-miterlimit="10" d="
		M65.625,24.99c0-4.9,3.99-8.88,8.92-8.88s8.92,3.98,8.92,8.88s-3.99,8.88-8.92,8.88C69.615,33.87,65.625,29.89,65.625,24.99z"/>
</g>
<g>
	
		<path fill="#FFFFFF" stroke="#67C0EF" stroke-width="1.8" stroke-linecap="round" stroke-linejoin="round" stroke-miterlimit="10" d="
		M45.885,24.99c0-4.9,3.99-8.88,8.92-8.88s8.92,3.98,8.92,8.88s-3.99,8.88-8.92,8.88C49.875,33.87,45.885,29.89,45.885,24.99z"/>
	
		<path fill="#FFFFFF" stroke="#288FD4" stroke-width="1.8" stroke-linecap="round" stroke-linejoin="round" stroke-miterlimit="10" d="
		M26.145,24.99c0-4.9,3.99-8.88,8.92-8.88c4.92,0,8.92,3.98,8.92,8.88s-4,8.88-8.92,8.88C30.135,33.87,26.145,29.89,26.145,24.99z"
		/>
	
		<path fill="#FFFFFF" stroke="#3AA2DB" stroke-width="1.8" stroke-linecap="round" stroke-linejoin="round" stroke-miterlimit="10" d="
		M6.395,24.99c0-4.9,4-8.88,8.92-8.88c4.93,0,8.93,3.98,8.93,8.88s-4,8.88-8.93,8.88C10.395,33.87,6.395,29.89,6.395,24.99z"/>
	
		<path fill="#FFFFFF" stroke="#67C0EF" stroke-width="1.8" stroke-linecap="round" stroke-linejoin="round" stroke-miterlimit="10" d="
		M-13.345,24.99c0-4.9,3.99-8.88,8.92-8.88s8.92,3.98,8.92,8.88s-3.99,8.88-8.92,8.88S-13.345,29.89-13.345,24.99z"/>
</g>
<g>
	
		<path fill="#FFFFFF" stroke="#67C0EF" stroke-width="1.8" stroke-linecap="round" stroke-linejoin="round" stroke-miterlimit="10" d="
		M194.715,32.55c0-4.91,3.99-8.88,8.92-8.88s8.92,3.97,8.92,8.88c0,4.9-3.99,8.88-8.92,8.88S194.715,37.45,194.715,32.55z"/>
	
		<path fill="#FFFFFF" stroke="#288FD4" stroke-width="1.8" stroke-linecap="round" stroke-linejoin="round" stroke-miterlimit="10" d="
		M174.965,32.55c0-4.91,4-8.88,8.93-8.88c4.92,0,8.92,3.97,8.92,8.88c0,4.9-4,8.88-8.92,8.88
		C178.965,41.43,174.965,37.45,174.965,32.55z"/>
	
		<path fill="#FFFFFF" stroke="#3AA2DB" stroke-width="1.8" stroke-linecap="round" stroke-linejoin="round" stroke-miterlimit="10" d="
		M155.225,32.55c0-4.91,4-8.88,8.92-8.88c4.93,0,8.92,3.97,8.92,8.88c0,4.9-3.99,8.88-8.92,8.88
		C159.225,41.43,155.225,37.45,155.225,32.55z"/>
</g>
<g>
	
		<path fill="#FFFFFF" stroke="#67C0EF" stroke-width="1.8" stroke-linecap="round" stroke-linejoin="round" stroke-miterlimit="10" d="
		M135.485,32.55c0-4.91,3.99-8.88,8.92-8.88s8.92,3.97,8.92,8.88c0,4.9-3.99,8.88-8.92,8.88S135.485,37.45,135.485,32.55z"/>
	
		<path fill="#FFFFFF" stroke="#288FD4" stroke-width="1.8" stroke-linecap="round" stroke-linejoin="round" stroke-miterlimit="10" d="
		M115.745,32.55c0-4.91,3.99-8.88,8.92-8.88c4.93,0,8.92,3.97,8.92,8.88c0,4.9-3.99,8.88-8.92,8.88
		C119.735,41.43,115.745,37.45,115.745,32.55z"/>
	
		<path fill="#FFFFFF" stroke="#3AA2DB" stroke-width="1.8" stroke-linecap="round" stroke-linejoin="round" stroke-miterlimit="10" d="
		M95.995,32.55c0-4.91,4-8.88,8.93-8.88c4.92,0,8.92,3.97,8.92,8.88c0,4.9-4,8.88-8.92,8.88C99.995,41.43,95.995,37.45,95.995,32.55
		z"/>
</g>
<path fill="#FFFFFF" stroke="#67C0EF" stroke-width="1.8" stroke-linecap="round" stroke-linejoin="round" stroke-miterlimit="10" d="
	M76.255,32.55c0-4.91,4-8.88,8.92-8.88c4.93,0,8.92,3.97,8.92,8.88c0,4.9-3.99,8.88-8.92,8.88
	C80.255,41.43,76.255,37.45,76.255,32.55z"/>
<path fill="#FFFFFF" stroke="#288FD4" stroke-width="1.8" stroke-linecap="round" stroke-linejoin="round" stroke-miterlimit="10" d="
	M56.515,32.55c0-4.91,3.99-8.88,8.92-8.88s8.92,3.97,8.92,8.88c0,4.9-3.99,8.88-8.92,8.88S56.515,37.45,56.515,32.55z"/>
<path fill="#FFFFFF" stroke="#3AA2DB" stroke-width="1.8" stroke-linecap="round" stroke-linejoin="round" stroke-miterlimit="10" d="
	M36.775,32.55c0-4.91,3.99-8.88,8.92-8.88s8.92,3.97,8.92,8.88c0,4.9-3.99,8.88-8.92,8.88S36.775,37.45,36.775,32.55z"/>
<path fill="#FFFFFF" stroke="#67C0EF" stroke-width="1.8" stroke-linecap="round" stroke-linejoin="round" stroke-miterlimit="10" d="
	M17.025,32.55c0-4.91,4-8.88,8.93-8.88c4.92,0,8.92,3.97,8.92,8.88c0,4.9-4,8.88-8.92,8.88C21.025,41.43,17.025,37.45,17.025,32.55z
	"/>
<path fill="#FFFFFF" stroke="#288FD4" stroke-width="1.8" stroke-linecap="round" stroke-linejoin="round" stroke-miterlimit="10" d="
	M183.685,40.1c0-4.9,4-8.88,8.93-8.88c4.92,0,8.92,3.98,8.92,8.88c0,4.91-4,8.88-8.92,8.88
	C187.685,48.98,183.685,45.01,183.685,40.1z"/>
<path fill="#FFFFFF" stroke="#288FD4" stroke-width="1.8" stroke-linecap="round" stroke-linejoin="round" stroke-miterlimit="10" d="
	M203.035,40.1c0-4.9,4-8.88,8.93-8.88c4.92,0,8.92,3.98,8.92,8.88c0,4.91-4,8.88-8.92,8.88
	C207.035,48.98,203.035,45.01,203.035,40.1z"/>
<path fill="#FFFFFF" stroke="#67C0EF" stroke-width="1.8" stroke-linecap="round" stroke-linejoin="round" stroke-miterlimit="10" d="
	M164.335,40.1c0-4.9,4-8.88,8.92-8.88c4.93,0,8.93,3.98,8.93,8.88c0,4.91-4,8.88-8.93,8.88
	C168.335,48.98,164.335,45.01,164.335,40.1z"/>
<path fill="#FFFFFF" stroke="#288FD4" stroke-width="1.8" stroke-linecap="round" stroke-linejoin="round" stroke-miterlimit="10" d="
	M144.595,40.1c0-4.9,3.99-8.88,8.92-8.88s8.92,3.98,8.92,8.88c0,4.91-3.99,8.88-8.92,8.88S144.595,45.01,144.595,40.1z"/>
<path fill="#FFFFFF" stroke="#3AA2DB" stroke-width="1.8" stroke-linecap="round" stroke-linejoin="round" stroke-miterlimit="10" d="
	M124.855,40.1c0-4.9,3.99-8.88,8.92-8.88s8.92,3.98,8.92,8.88c0,4.91-3.99,8.88-8.92,8.88S124.855,45.01,124.855,40.1z"/>
<path fill="#FFFFFF" stroke="#3AA2DB" stroke-width="1.8" stroke-linecap="round" stroke-linejoin="round" stroke-miterlimit="10" d="
	M-2.745,32.55c0-4.91,4-8.88,8.92-8.88c4.93,0,8.93,3.97,8.93,8.88c0,4.9-4,8.88-8.93,8.88C1.255,41.43-2.745,37.45-2.745,32.55z"/>
<path fill="#FFFFFF" stroke="#3AA2DB" stroke-width="1.8" stroke-linecap="round" stroke-linejoin="round" stroke-miterlimit="10" d="
	M-21.195,32.55c0-4.91,4-8.88,8.92-8.88c4.93,0,8.93,3.97,8.93,8.88c0,4.9-4,8.88-8.93,8.88
	C-17.195,41.43-21.195,37.45-21.195,32.55z"/>
<g>
	
		<path fill="#FFFFFF" stroke="#67C0EF" stroke-width="1.8" stroke-linecap="round" stroke-linejoin="round" stroke-miterlimit="10" d="
		M105.115,40.1c0-4.9,3.99-8.88,8.92-8.88c4.92,0,8.92,3.98,8.92,8.88c0,4.91-4,8.88-8.92,8.88
		C109.105,48.98,105.115,45.01,105.115,40.1z"/>
	
		<path fill="#FFFFFF" stroke="#288FD4" stroke-width="1.8" stroke-linecap="round" stroke-linejoin="round" stroke-miterlimit="10" d="
		M85.365,40.1c0-4.9,4-8.88,8.92-8.88c4.93,0,8.93,3.98,8.93,8.88c0,4.91-4,8.88-8.93,8.88C89.365,48.98,85.365,45.01,85.365,40.1z"
		/>
	
		<path fill="#FFFFFF" stroke="#3AA2DB" stroke-width="1.8" stroke-linecap="round" stroke-linejoin="round" stroke-miterlimit="10" d="
		M65.625,40.1c0-4.9,3.99-8.88,8.92-8.88s8.92,3.98,8.92,8.88c0,4.91-3.99,8.88-8.92,8.88S65.625,45.01,65.625,40.1z"/>
</g>
<g>
	
		<path fill="#FFFFFF" stroke="#67C0EF" stroke-width="1.8" stroke-linecap="round" stroke-linejoin="round" stroke-miterlimit="10" d="
		M45.885,40.1c0-4.9,3.99-8.88,8.92-8.88s8.92,3.98,8.92,8.88c0,4.91-3.99,8.88-8.92,8.88S45.885,45.01,45.885,40.1z"/>
	
		<path fill="#FFFFFF" stroke="#288FD4" stroke-width="1.8" stroke-linecap="round" stroke-linejoin="round" stroke-miterlimit="10" d="
		M26.145,40.1c0-4.9,3.99-8.88,8.92-8.88c4.92,0,8.92,3.98,8.92,8.88c0,4.91-4,8.88-8.92,8.88
		C30.135,48.98,26.145,45.01,26.145,40.1z"/>
	
		<path fill="#FFFFFF" stroke="#3AA2DB" stroke-width="1.8" stroke-linecap="round" stroke-linejoin="round" stroke-miterlimit="10" d="
		M6.395,40.1c0-4.9,4-8.88,8.92-8.88c4.93,0,8.93,3.98,8.93,8.88c0,4.91-4,8.88-8.93,8.88C10.395,48.98,6.395,45.01,6.395,40.1z"/>
	
		<path fill="#FFFFFF" stroke="#67C0EF" stroke-width="1.8" stroke-linecap="round" stroke-linejoin="round" stroke-miterlimit="10" d="
		M-13.345,40.1c0-4.9,3.99-8.88,8.92-8.88s8.92,3.98,8.92,8.88c0,4.91-3.99,8.88-8.92,8.88S-13.345,45.01-13.345,40.1z"/>
</g>
<g>
	
		<path fill="#FFFFFF" stroke="#67C0EF" stroke-width="1.8" stroke-linecap="round" stroke-linejoin="round" stroke-miterlimit="10" d="
		M194.715,47.66c0-4.9,3.99-8.88,8.92-8.88s8.92,3.98,8.92,8.88s-3.99,8.88-8.92,8.88S194.715,52.56,194.715,47.66z"/>
	
		<path fill="#FFFFFF" stroke="#288FD4" stroke-width="1.8" stroke-linecap="round" stroke-linejoin="round" stroke-miterlimit="10" d="
		M174.965,47.66c0-4.9,4-8.88,8.93-8.88c4.92,0,8.92,3.98,8.92,8.88s-4,8.88-8.92,8.88C178.965,56.54,174.965,52.56,174.965,47.66z"
		/>
	
		<path fill="#FFFFFF" stroke="#3AA2DB" stroke-width="1.8" stroke-linecap="round" stroke-linejoin="round" stroke-miterlimit="10" d="
		M155.225,47.66c0-4.9,4-8.88,8.92-8.88c4.93,0,8.92,3.98,8.92,8.88s-3.99,8.88-8.92,8.88
		C159.225,56.54,155.225,52.56,155.225,47.66z"/>
</g>
<g>
	
		<path fill="#FFFFFF" stroke="#67C0EF" stroke-width="1.8" stroke-linecap="round" stroke-linejoin="round" stroke-miterlimit="10" d="
		M135.485,47.66c0-4.9,3.99-8.88,8.92-8.88s8.92,3.98,8.92,8.88s-3.99,8.88-8.92,8.88S135.485,52.56,135.485,47.66z"/>
	
		<path fill="#FFFFFF" stroke="#288FD4" stroke-width="1.8" stroke-linecap="round" stroke-linejoin="round" stroke-miterlimit="10" d="
		M115.745,47.66c0-4.9,3.99-8.88,8.92-8.88c4.93,0,8.92,3.98,8.92,8.88s-3.99,8.88-8.92,8.88
		C119.735,56.54,115.745,52.56,115.745,47.66z"/>
	
		<path fill="#FFFFFF" stroke="#3AA2DB" stroke-width="1.8" stroke-linecap="round" stroke-linejoin="round" stroke-miterlimit="10" d="
		M95.995,47.66c0-4.9,4-8.88,8.93-8.88c4.92,0,8.92,3.98,8.92,8.88s-4,8.88-8.92,8.88C99.995,56.54,95.995,52.56,95.995,47.66z"/>
</g>
<path fill="#FFFFFF" stroke="#67C0EF" stroke-width="1.8" stroke-linecap="round" stroke-linejoin="round" stroke-miterlimit="10" d="
	M76.255,47.66c0-4.9,4-8.88,8.92-8.88c4.93,0,8.92,3.98,8.92,8.88s-3.99,8.88-8.92,8.88C80.255,56.54,76.255,52.56,76.255,47.66z"/>
<path fill="#FFFFFF" stroke="#288FD4" stroke-width="1.8" stroke-linecap="round" stroke-linejoin="round" stroke-miterlimit="10" d="
	M56.515,47.66c0-4.9,3.99-8.88,8.92-8.88s8.92,3.98,8.92,8.88s-3.99,8.88-8.92,8.88S56.515,52.56,56.515,47.66z"/>
<path fill="#FFFFFF" stroke="#3AA2DB" stroke-width="1.8" stroke-linecap="round" stroke-linejoin="round" stroke-miterlimit="10" d="
	M36.775,47.66c0-4.9,3.99-8.88,8.92-8.88s8.92,3.98,8.92,8.88s-3.99,8.88-8.92,8.88S36.775,52.56,36.775,47.66z"/>
<path fill="#FFFFFF" stroke="#67C0EF" stroke-width="1.8" stroke-linecap="round" stroke-linejoin="round" stroke-miterlimit="10" d="
	M17.025,47.66c0-4.9,4-8.88,8.93-8.88c4.92,0,8.92,3.98,8.92,8.88s-4,8.88-8.92,8.88C21.025,56.54,17.025,52.56,17.025,47.66z"/>
<path fill="#FFFFFF" stroke="#3AA2DB" stroke-width="1.8" stroke-linecap="round" stroke-linejoin="round" stroke-miterlimit="10" d="
	M-2.745,47.66c0-4.9,4-8.88,8.92-8.88c4.93,0,8.93,3.98,8.93,8.88s-4,8.88-8.93,8.88C1.255,56.54-2.745,52.56-2.745,47.66z"/>
<path fill="#FFFFFF" stroke="#288FD4" stroke-width="1.8" stroke-linecap="round" stroke-linejoin="round" stroke-miterlimit="10" d="
	M-21.19,47.98c0-4.9,3.99-8.88,8.92-8.88s8.92,3.98,8.92,8.88s-3.99,8.88-8.92,8.88S-21.19,52.88-21.19,47.98z"/>
</svg>
