<?xml version="1.0" encoding="utf-8"?>
<!-- Generator: Adobe Illustrator 17.0.0, SVG Export Plug-In . SVG Version: 6.00 Build 0)  -->
<!DOCTYPE svg PUBLIC "-//W3C//DTD SVG 1.1//EN" "http://www.w3.org/Graphics/SVG/1.1/DTD/svg11.dtd">
<svg version="1.1" id="Capa_1" xmlns="http://www.w3.org/2000/svg" xmlns:xlink="http://www.w3.org/1999/xlink" x="0px" y="0px"
	 width="52.65px" height="52.65px" viewBox="0 0 52.65 52.65" enable-background="new 0 0 52.65 52.65" xml:space="preserve">
<path fill-rule="evenodd" clip-rule="evenodd" fill="none" stroke="#E2E2E2" stroke-width="1.35" stroke-linecap="square" stroke-miterlimit="10" d="
	M0.675,26.325c0-14.17,11.48-25.65,25.65-25.65s25.65,11.48,25.65,25.65s-11.48,25.65-25.65,25.65S0.675,40.495,0.675,26.325z"/>
<g>
	<path fill-rule="evenodd" clip-rule="evenodd" fill="#DBDBDB" d="M34.205,24.655c-0.41,0-0.75-0.32-0.75-0.73
		c0-0.4,0.34-0.72,0.75-0.72c0.42,0,0.76,0.32,0.76,0.72C34.965,24.335,34.625,24.655,34.205,24.655z M26.325,32.565
		c-2.98,0-5.4-2.33-5.4-5.2s2.42-5.2,5.4-5.2s5.4,2.33,5.4,5.2S29.305,32.565,26.325,32.565z M34.965,21.125h-2.59
		c-0.36,0-0.74-0.27-0.85-0.6l-0.68-1.93c-0.11-0.33-0.49-0.6-0.85-0.6h-7.34c-0.36,0-0.74,0.27-0.85,0.6l-0.68,1.93
		c-0.11,0.33-0.49,0.6-0.85,0.6h-2.59c-1.19,0-2.16,0.93-2.16,2.08v9.36c0,1.15,0.97,2.08,2.16,2.08h17.28
		c1.19,0,2.16-0.93,2.16-2.08v-9.36C37.125,22.055,36.155,21.125,34.965,21.125z M26.325,24.245c-1.79,0-3.24,1.4-3.24,3.12
		c0,1.73,1.45,3.12,3.24,3.12c1.79,0,3.24-1.39,3.24-3.12C29.565,25.645,28.115,24.245,26.325,24.245z"/>
</g>
</svg>
