<?xml version="1.0" encoding="UTF-8" standalone="no"?>
<svg width="134px" height="54px" viewBox="0 0 134 54" version="1.1" xmlns="http://www.w3.org/2000/svg" xmlns:xlink="http://www.w3.org/1999/xlink">
    <!-- Generator: Sketch 40.1 (33804) - http://www.bohemiancoding.com/sketch -->
    <title>logo_cleansuit_domiciliarios</title>
    <desc>Created with Sketch.</desc>
    <defs></defs>
    <g id="Page-1" stroke="none" stroke-width="1" fill="none" fill-rule="evenodd">
        <g id="logo_cleansuit_domiciliarios">
            <g id="Group">
                <g id="Shape">
                    <path d="M41.02,15.76 C40.79,15.12 40.2,14.7 39.52,14.78 C38.76,14.87 38.16,15.57 38.3,16.33 C38.37,16.68 38.49,16.87 38.79,17.23 C40.04,18.8 39.66,21.27 39.66,21.27 C39.66,21.27 42.13,19.11 41.02,15.76 L41.02,15.76 Z" fill="#F08700"></path>
                    <path d="M39.01,14.94 C38.51,15.19 38.19,15.75 38.3,16.33 C38.37,16.68 38.49,16.87 38.79,17.23 C40.04,18.8 39.66,21.27 39.66,21.27 C39.66,21.27 41.53,17.04 39.01,14.94 L39.01,14.94 Z" fill="#ED7102"></path>
                    <path d="M37.21,20.35 C36.94,19.49 36.2,18.88 35.28,18.94 C34.26,19 33.41,19.89 33.54,20.91 C33.6,21.39 33.76,21.65 34.12,22.15 C35.68,24.34 34.99,27.61 34.99,27.61 C34.99,27.61 38.45,24.91 37.21,20.35 L37.21,20.35 Z" fill="#97C11D"></path>
                    <path d="M34.68,19.07 C33.97,19.41 33.43,20.1 33.54,20.91 C33.6,21.39 33.76,21.65 34.12,22.15 C35.68,24.34 34.99,27.61 34.99,27.61 C34.99,27.61 37.99,21.86 34.68,19.07 L34.68,19.07 Z" fill="#75B729"></path>
                    <path d="M42.28,24.57 C42.23,23.55 41.57,22.68 40.55,22.49 C39.41,22.28 38.23,23.03 38.1,24.19 C38.04,24.73 38.14,25.07 38.4,25.71 C39.52,28.54 37.87,31.95 37.87,31.95 C37.87,31.95 42.41,29.92 42.28,24.57 L42.28,24.57 Z" fill="#04BAEE"></path>
                    <path d="M39.49,22.56 C38.8,22.89 38.19,23.4 38.1,24.19 C38.04,24.73 38.14,25.07 38.4,25.71 C39.52,28.54 37.87,31.95 37.87,31.95 C37.87,31.95 42.74,27.09 39.49,22.56 L39.49,22.56 Z" fill="#00B0EA"></path>
                    <path d="M32.48,32.33 C30.06,36.98 25.17,40.13 19.57,40.13 C11.51,40.13 4.98,33.6 4.98,25.54 C4.98,17.49 11.51,10.96 19.57,10.96 C23.2,10.96 26.13,12.49 27.14,12.92 C35.29,16.35 37.45,8.05 33.9,4.8 C33.48,4.42 33.09,4.08 32.59,3.76 C29.42,1.75 25.65,0.65 21.63,0.65 C10.1,0.65 0.75,10 0.75,21.53 C0.75,33.05 10.1,42.4 21.63,42.4 C27.37,42.4 32.68,40.2 36.34,36.33 C39.83,32.65 35.08,27.34 32.48,32.33 L32.48,32.33 Z" fill="#005CA8"></path>
                    <path d="M36.68,35.92 C37.74,34.39 38.15,32.52 36.72,31.08 C35.5,29.86 33.33,29.83 32.25,31.17 C31.92,31.58 31.64,32.42 31.38,33.29 C27.98,42.65 17.12,41.91 17.12,41.91 C17.12,41.91 28.84,45.28 36.68,35.92 L36.68,35.92 Z" fill="#009EE2"></path>
                </g>
                <path d="M41.02,15.76 C40.79,15.12 40.2,14.7 39.52,14.78 C38.76,14.87 38.16,15.57 38.3,16.33 C38.37,16.68 38.49,16.87 38.79,17.23 C40.04,18.8 39.66,21.27 39.66,21.27 C39.66,21.27 42.13,19.11 41.02,15.76 L41.02,15.76 Z" id="Shape" fill="#F08700"></path>
                <path d="M39.01,14.94 C38.51,15.19 38.19,15.75 38.3,16.33 C38.37,16.68 38.49,16.87 38.79,17.23 C40.04,18.8 39.66,21.27 39.66,21.27 C39.66,21.27 41.53,17.04 39.01,14.94 L39.01,14.94 Z" id="Shape" fill="#EB6507"></path>
                <path d="M37.21,20.35 C36.94,19.49 36.2,18.88 35.28,18.94 C34.26,19 33.41,19.89 33.54,20.91 C33.6,21.39 33.76,21.65 34.12,22.15 C35.68,24.34 34.99,27.61 34.99,27.61 C34.99,27.61 38.45,24.91 37.21,20.35 L37.21,20.35 Z" id="Shape" fill="#C7D300"></path>
                <path d="M34.68,19.07 C33.97,19.41 33.43,20.1 33.54,20.91 C33.6,21.39 33.76,21.65 34.12,22.15 C35.68,24.34 34.99,27.61 34.99,27.61 C34.99,27.61 37.99,21.86 34.68,19.07 L34.68,19.07 Z" id="Shape" fill="#94C01E"></path>
                <path d="M42.28,24.57 C42.23,23.55 41.57,22.68 40.55,22.49 C39.41,22.28 38.23,23.03 38.1,24.19 C38.04,24.73 38.14,25.07 38.4,25.71 C39.52,28.54 37.87,31.95 37.87,31.95 C37.87,31.95 42.41,29.92 42.28,24.57 L42.28,24.57 Z" id="Shape" fill="#5AC4F1"></path>
                <path d="M39.49,22.56 C38.8,22.89 38.19,23.4 38.1,24.19 C38.04,24.73 38.14,25.07 38.4,25.71 C39.52,28.54 37.87,31.95 37.87,31.95 C37.87,31.95 42.74,27.09 39.49,22.56 L39.49,22.56 Z" id="Shape" fill="#00A6E6"></path>
                <path d="M33.1,33.46 C32.57,32.2 33.14,30.81 33.17,30.82 C33.19,30.83 33.04,31.25 32.48,32.33 C30.06,36.98 25.17,40.13 19.57,40.13 C11.51,40.13 4.98,33.6 4.98,25.54 C4.98,17.49 11.51,10.96 19.57,10.96 C23.2,10.96 26.13,12.49 27.14,12.92 C31.27,14.66 33.87,13.38 34.96,11.28 C31.61,7.47 26.7,5.07 21.23,5.07 C11.15,5.07 2.97,13.24 2.97,23.33 C2.97,32.72 9.98,41.1 19.15,41.1 C28.35,41.1 31.52,32.49 33.1,33.46 L33.1,33.46 Z" id="Shape" fill="#154093"></path>
                <path d="M36.68,35.92 C37.74,34.39 38.15,32.52 36.72,31.08 C35.5,29.86 33.33,29.83 32.25,31.17 C31.92,31.58 31.64,32.42 31.38,33.29 C27.98,42.65 17.12,41.91 17.12,41.91 C17.12,41.91 28.84,45.28 36.68,35.92 L36.68,35.92 Z" id="Shape" fill="#94C01E"></path>
                <path d="M35.99,30.55 C34.76,29.9 33.14,30.07 32.25,31.17 C31.92,31.58 31.64,32.42 31.38,33.29 C27.98,42.65 17.12,41.91 17.12,41.91 C17.12,41.91 31.69,44.81 35.99,30.55 L35.99,30.55 Z" id="Shape" fill="#50AD31"></path>
                <g transform="translate(47.000000, 9.000000)" id="Shape" fill="#154093">
                    <path d="M26.48,1.92 C27.54,1.92 24.15,11.85 18.21,18.37 C20.06,11.73 24.36,1.92 26.48,1.92 L26.48,1.92 Z M13.45,3.87 C16.26,3.87 14.58,8.23 11.77,8.93 C10.19,9.31 8.82,8.91 7.28,8.56 C8.91,5.85 11.07,3.87 13.45,3.87 L13.45,3.87 Z M22.48,21.61 C21.89,22.2 18.63,24.35 17.91,24.35 C17.18,24.35 17.18,22.85 17.65,20.62 C25.06,12.9 30.76,0.24 26.68,0.24 C22,0.24 16.26,13.63 15.37,21.03 C13.11,22.79 10.6,23.93 7.89,23.93 C3.04,23.93 3.64,15.49 6.72,9.56 C9.76,10.58 14.93,12.17 16.61,6 C17.4,3.1 14.71,1.97 13.42,1.97 C9.51,1.97 6.24,4.63 4.04,8.19 C1.32,8.27 0.26,9.39 0.26,9.39 C-0.04,9.76 0.31,10.35 0.71,9.97 C0.96,9.74 2.01,9.23 3.5,9.12 C-0.42,16.35 -0.13,26.45 7.57,26.45 C10.03,26.45 12.69,25.04 15.25,22.88 C15.26,24.67 15.73,25.81 16.8,25.81 C19.22,25.81 21.79,23.29 22.68,22.45 C22.68,22.45 23.07,21.02 22.48,21.61 L22.48,21.61 Z"></path>
                    <path d="M30.28,12.13 C33.43,12.13 28.7,18.49 25.26,18.92 C26.16,15.66 28.35,12.13 30.28,12.13 L30.28,12.13 Z M31.41,21.96 C30.5,23.07 27.76,24.38 26.82,24.38 C24.89,24.38 24.54,22.26 25.05,19.78 C35.59,17.04 33.62,10.6 30.63,10.6 C23.17,10.6 17.94,26.01 26.03,26.01 C28.7,26.01 31.41,23.04 31.69,22.7 C32.11,22.18 31.98,21.27 31.41,21.96 L31.41,21.96 Z"></path>
                    <path d="M35.41,23.69 C32.99,23.69 36.1,12.36 40.1,12.36 C42.77,12.36 39.44,23.69 35.41,23.69 L35.41,23.69 Z M57.93,22.99 C57.58,23.34 56,24.07 55.66,23.7 C55.11,23.11 60.46,10.52 56.25,10.55 C53.14,10.58 49.83,15.19 49.83,15.19 L49.79,15.4 C50.36,12.9 50.55,9.77 47.66,10.5 C47.38,10.58 47.28,11.15 47.66,11.29 C48.99,11.8 46.6,17.84 45.52,22.17 C44.55,22.79 42.59,23.98 41.78,23.98 C40.7,23.98 44.69,11.76 44.99,11.17 C45.29,10.58 44.69,10.43 43.9,10.48 C43.9,10.48 43.11,10.53 42.92,11.42 C42.9,11.5 42.84,11.69 42.76,11.97 C42.55,11.67 41.72,10.68 40.25,10.68 C34.28,10.68 28.5,25.91 36.01,25.91 C36.7,25.91 38.8,24.87 40.2,23.35 C39.99,25.02 40.09,25.91 40.79,25.91 C41.74,25.91 43.52,24.87 45.21,23.56 C44.89,25.24 44.94,25.88 45.78,25.88 C47.21,25.88 47.04,23.95 48.32,20.53 C49.73,17.65 52.49,13.11 54.42,13.02 C57.33,12.89 50.87,25.86 52.95,25.86 C54.75,25.86 57.96,23.81 58.37,23.39 C59.08,22.66 58.27,22.65 57.93,22.99 L57.93,22.99 Z"></path>
                </g>
                <g transform="translate(105.000000, 9.000000)" id="Shape" fill="#94C01E">
                    <path d="M1.95,22.67 C1.95,22.67 1.6,22.08 0.96,22.72 C0.32,23.36 1.21,25.93 3.77,25.93 C6.34,25.93 8.66,22.3 6.69,13.34 C4.45,3.18 10.68,3.37 10.68,3.37 C11.87,3.42 12.27,0.9 10.64,0.9 C10.64,0.9 2.77,0.82 5.18,13.39 C7.5,25.49 3.67,24.3 3.67,24.3 C2.93,24.3 1.95,22.67 1.95,22.67 L1.95,22.67 Z"></path>
                    <path d="M12.31,10.38 C12.31,10.38 11.04,23.94 12.96,23.94 C14.77,23.94 14.88,10.75 15.08,10.26 C15.28,9.76 16.58,9.5 16.66,10.31 C16.74,11.13 17.31,25.94 12.56,25.91 C8.37,25.88 10.44,10.48 10.59,10.04 C10.73,9.59 12.27,9.49 12.31,10.38 L12.31,10.38 Z"></path>
                    <path d="M19.92,10.41 C19.92,10.41 19.18,24.67 19.08,25.12 C18.98,25.56 17.45,26.01 17.35,25.12 C17.25,24.23 18.14,12.97 17.99,11.2 C17.84,9.42 19.97,9.81 19.92,10.41 L19.92,10.41 Z"></path>
                    <path d="M27.2,9.57 L21.08,9.86 C21.08,9.86 20.68,9.96 20.63,10.21 C20.58,10.46 20.24,11.1 21.13,11.2 C21.45,11.23 22.29,11.26 23.25,11.27 C23.37,13.26 22.51,24.24 22.61,25.12 C22.71,26.01 24.24,25.56 24.33,25.12 C24.42,24.74 24.97,14.36 25.13,11.27 C26.2,11.25 27.11,11.21 27.27,11.12 C28.36,10.55 28.28,9.42 27.2,9.57 L27.2,9.57 Z"></path>
                </g>
            </g>
            <g id="Group" transform="translate(41.000000, 46.000000)" fill="#666666">
                <path d="M2.35,1.45 C2.97,1.45 3.49,1.69 3.91,2.16 C4.31,2.63 4.52,3.22 4.52,3.92 L4.52,4.81 C4.52,5.53 4.31,6.13 3.91,6.6 C3.5,7.07 2.98,7.3 2.35,7.3 L0.92,7.3 L0.92,1.45 L2.35,1.45 L2.35,1.45 Z M2.35,7.75 C3.13,7.75 3.77,7.48 4.29,6.93 C4.79,6.38 5.05,5.68 5.05,4.81 L5.05,3.95 C5.05,3.09 4.79,2.38 4.29,1.83 C3.77,1.28 3.13,1 2.35,1 L0.39,1 L0.39,7.75 L2.35,7.75 L2.35,7.75 Z" id="Shape"></path>
                <path d="M6.35,5.2 C6.35,4.66 6.49,4.2 6.77,3.82 C7.05,3.44 7.44,3.25 7.93,3.25 C8.42,3.25 8.81,3.44 9.09,3.82 C9.37,4.2 9.51,4.66 9.51,5.2 L9.51,5.35 C9.51,5.9 9.37,6.36 9.09,6.74 C8.81,7.12 8.42,7.3 7.94,7.3 C7.44,7.3 7.05,7.12 6.77,6.74 C6.49,6.36 6.35,5.9 6.35,5.35 L6.35,5.2 L6.35,5.2 Z M5.83,5.35 C5.83,6.06 6.02,6.63 6.4,7.08 C6.78,7.53 7.3,7.75 7.94,7.75 C8.57,7.75 9.07,7.53 9.45,7.08 C9.83,6.63 10.03,6.06 10.03,5.35 L10.03,5.2 C10.03,4.5 9.83,3.92 9.45,3.47 C9.07,3.03 8.56,2.8 7.93,2.8 C7.3,2.8 6.78,3.03 6.4,3.47 C6.02,3.92 5.83,4.5 5.83,5.2 L5.83,5.35 L5.83,5.35 Z" id="Shape"></path>
                <path d="M11.05,2.8 L11.05,7.75 L11.58,7.75 L11.58,4.33 C11.66,4 11.82,3.74 12.03,3.55 C12.25,3.35 12.55,3.25 12.92,3.25 C13.29,3.25 13.57,3.38 13.78,3.63 C13.99,3.88 14.09,4.3 14.09,4.9 L14.09,7.75 L14.63,7.75 L14.63,4.84 C14.63,4.79 14.62,4.75 14.62,4.71 L14.62,4.61 C14.68,4.21 14.82,3.88 15.04,3.63 C15.26,3.38 15.57,3.25 15.97,3.25 C16.34,3.25 16.62,3.38 16.83,3.62 C17.04,3.88 17.15,4.3 17.15,4.9 L17.15,7.75 L17.67,7.75 L17.67,4.92 C17.67,4.2 17.53,3.66 17.26,3.32 C16.98,2.98 16.59,2.8 16.08,2.8 C15.7,2.8 15.39,2.9 15.12,3.09 C14.85,3.29 14.65,3.55 14.51,3.89 C14.4,3.52 14.23,3.26 13.99,3.07 C13.74,2.89 13.44,2.8 13.08,2.8 C12.72,2.8 12.43,2.88 12.17,3.04 C11.92,3.19 11.72,3.41 11.56,3.69 L11.52,2.8 L11.05,2.8 L11.05,2.8 Z" id="Shape"></path>
                <path d="M19.76,0.55 L19.23,0.55 L19.23,1.38 L19.76,1.38 L19.76,0.55 L19.76,0.55 Z M19.76,2.8 L19.23,2.8 L19.23,7.75 L19.76,7.75 L19.76,2.8 L19.76,2.8 Z" id="Shape"></path>
                <path d="M22.04,6.75 C21.8,6.39 21.68,5.93 21.68,5.37 L21.68,5.18 C21.68,4.63 21.8,4.17 22.04,3.81 C22.28,3.44 22.65,3.25 23.16,3.25 C23.52,3.25 23.82,3.37 24.07,3.59 C24.32,3.82 24.44,4.13 24.44,4.51 L24.92,4.51 L24.92,4.48 C24.93,3.98 24.76,3.57 24.42,3.26 C24.09,2.95 23.66,2.8 23.16,2.8 C22.52,2.8 22.03,3.03 21.68,3.47 C21.33,3.92 21.15,4.49 21.15,5.18 L21.15,5.37 C21.15,6.06 21.33,6.63 21.68,7.08 C22.03,7.53 22.52,7.75 23.16,7.75 C23.63,7.75 24.04,7.6 24.4,7.31 C24.75,7.01 24.93,6.65 24.92,6.21 L24.92,6.17 L24.44,6.17 C24.44,6.53 24.31,6.81 24.05,7 C23.79,7.2 23.5,7.3 23.16,7.3 C22.65,7.3 22.28,7.12 22.04,6.75 L22.04,6.75 Z" id="Shape"></path>
                <path d="M26.51,0.55 L25.98,0.55 L25.98,1.38 L26.51,1.38 L26.51,0.55 L26.51,0.55 Z M26.51,2.8 L25.98,2.8 L25.98,7.75 L26.51,7.75 L26.51,2.8 L26.51,2.8 Z" id="Shape"></path>
                <rect id="Rectangle-path" x="28.23" y="0.55" width="0.53" height="7.2"></rect>
                <path d="M31.01,0.55 L30.48,0.55 L30.48,1.38 L31.01,1.38 L31.01,0.55 L31.01,0.55 Z M31.01,2.8 L30.48,2.8 L30.48,7.75 L31.01,7.75 L31.01,2.8 L31.01,2.8 Z" id="Shape"></path>
                <path d="M33.2,7.05 C33.02,6.89 32.93,6.67 32.93,6.4 C32.93,6.12 33.06,5.87 33.35,5.67 C33.63,5.46 33.98,5.36 34.41,5.36 L35.58,5.36 L35.58,6.27 C35.48,6.58 35.27,6.82 34.98,7.01 C34.68,7.21 34.33,7.3 33.93,7.3 C33.62,7.3 33.37,7.22 33.2,7.05 L33.2,7.05 Z M36.23,7.75 C36.19,7.6 36.15,7.43 36.14,7.27 C36.12,7.11 36.11,6.94 36.11,6.77 L36.11,4.38 C36.11,3.88 35.95,3.48 35.63,3.21 C35.31,2.94 34.89,2.8 34.37,2.8 C33.85,2.8 33.43,2.94 33.11,3.21 C32.78,3.48 32.63,3.8 32.65,4.15 L32.66,4.18 L33.14,4.18 C33.14,3.91 33.25,3.69 33.47,3.52 C33.7,3.34 33.99,3.25 34.35,3.25 C34.74,3.25 35.04,3.35 35.26,3.55 C35.47,3.74 35.58,4 35.58,4.34 L35.58,4.93 L34.41,4.93 C33.82,4.93 33.33,5.06 32.96,5.33 C32.59,5.6 32.4,5.94 32.4,6.36 C32.4,6.79 32.53,7.13 32.79,7.38 C33.04,7.63 33.41,7.75 33.87,7.75 C34.25,7.75 34.6,7.69 34.89,7.55 C35.19,7.41 35.41,7.21 35.58,6.95 C35.58,7.08 35.59,7.2 35.6,7.32 C35.62,7.44 35.65,7.58 35.68,7.75 L36.23,7.75 L36.23,7.75 Z" id="Shape"></path>
                <path d="M39.86,2.76 C39.81,2.76 39.77,2.77 39.71,2.79 C39.65,2.8 39.59,2.8 39.53,2.8 C39.2,2.8 38.93,2.88 38.7,3.04 C38.46,3.19 38.28,3.41 38.15,3.69 L38.15,3.64 L38.08,2.8 L37.62,2.8 L37.62,7.75 L38.15,7.75 L38.15,4.35 C38.23,4.01 38.39,3.74 38.6,3.55 C38.81,3.35 39.08,3.25 39.41,3.25 L39.79,3.25 L39.86,2.76 L39.86,2.76 Z" id="Shape"></path>
                <path d="M41.36,0.55 L40.83,0.55 L40.83,1.38 L41.36,1.38 L41.36,0.55 L41.36,0.55 Z M41.36,2.8 L40.83,2.8 L40.83,7.75 L41.36,7.75 L41.36,2.8 L41.36,2.8 Z" id="Shape"></path>
                <path d="M43.25,5.2 C43.25,4.66 43.39,4.2 43.67,3.82 C43.95,3.44 44.34,3.25 44.83,3.25 C45.32,3.25 45.71,3.44 45.99,3.82 C46.27,4.2 46.41,4.66 46.41,5.2 L46.41,5.35 C46.41,5.9 46.27,6.36 45.99,6.74 C45.71,7.12 45.32,7.3 44.84,7.3 C44.34,7.3 43.95,7.12 43.67,6.74 C43.39,6.36 43.25,5.9 43.25,5.35 L43.25,5.2 L43.25,5.2 Z M42.73,5.35 C42.73,6.06 42.92,6.63 43.3,7.08 C43.68,7.53 44.2,7.75 44.84,7.75 C45.47,7.75 45.97,7.53 46.35,7.08 C46.73,6.63 46.93,6.06 46.93,5.35 L46.93,5.2 C46.93,4.5 46.73,3.92 46.35,3.47 C45.97,3.03 45.46,2.8 44.83,2.8 C44.2,2.8 43.68,3.03 43.3,3.47 C42.92,3.92 42.73,4.5 42.73,5.2 L42.73,5.35 L42.73,5.35 Z" id="Shape"></path>
                <path d="M50.49,7.05 C50.26,7.22 49.97,7.3 49.59,7.3 C49.24,7.3 48.93,7.22 48.67,7.07 C48.41,6.91 48.27,6.67 48.25,6.32 L47.77,6.32 L47.76,6.35 C47.74,6.73 47.89,7.06 48.22,7.34 C48.55,7.62 49.01,7.75 49.59,7.75 C50.11,7.75 50.53,7.63 50.85,7.38 C51.18,7.13 51.34,6.81 51.34,6.41 C51.34,6.04 51.19,5.75 50.91,5.52 C50.62,5.3 50.2,5.13 49.65,5 C49.15,4.9 48.82,4.77 48.65,4.63 C48.48,4.49 48.41,4.3 48.41,4.09 C48.41,3.86 48.5,3.67 48.7,3.5 C48.89,3.33 49.18,3.25 49.56,3.25 C49.93,3.25 50.22,3.35 50.45,3.55 C50.67,3.74 50.78,3.97 50.78,4.23 L51.28,4.23 L51.28,4.2 C51.3,3.81 51.14,3.47 50.83,3.21 C50.51,2.94 50.09,2.8 49.56,2.8 C49.05,2.8 48.65,2.93 48.34,3.18 C48.03,3.43 47.89,3.74 47.89,4.1 C47.89,4.47 48.02,4.76 48.29,4.97 C48.57,5.17 48.99,5.33 49.55,5.44 C50.03,5.55 50.36,5.68 50.54,5.85 C50.73,6.02 50.82,6.21 50.82,6.44 C50.82,6.67 50.71,6.88 50.49,7.05 L50.49,7.05 Z" id="Shape"></path>
            </g>
            <path d="M96.83,51.28 L104.92,51.28" id="Shape" stroke="#666666" stroke-width="0.45"></path>
            <path d="M28.43,51.28 L36.52,51.28" id="Shape" stroke="#666666" stroke-width="0.45"></path>
        </g>
    </g>
</svg>