<?xml version="1.0" encoding="utf-8"?>
<!-- Generator: Adobe Illustrator 15.1.0, SVG Export Plug-In  -->
<!DOCTYPE svg PUBLIC "-//W3C//DTD SVG 1.1//EN" "http://www.w3.org/Graphics/SVG/1.1/DTD/svg11.dtd" [
	<!ENTITY ns_flows "http://ns.adobe.com/Flows/1.0/">
]>
<svg version="1.1"
	 xmlns="http://www.w3.org/2000/svg" xmlns:xlink="http://www.w3.org/1999/xlink" xmlns:a="http://ns.adobe.com/AdobeSVGViewerExtensions/3.0/"
	 x="0px" y="0px" width="134px" height="55px" viewBox="0.5 0.5 134 55" overflow="visible" enable-background="new 0.5 0.5 134 55"
	 xml:space="preserve">
<defs>
</defs>
<path fill="#F08700" d="M41.67,15.61c-0.23-0.64-0.82-1.06-1.5-0.98c-0.76,0.09-1.36,0.79-1.22,1.55c0.07,0.35,0.19,0.54,0.49,0.9
	c1.25,1.57,0.87,4.04,0.87,4.04S42.78,18.96,41.67,15.61z"/>
<path fill="#ED7102" d="M39.66,14.79c-0.5,0.25-0.82,0.81-0.71,1.39c0.07,0.35,0.19,0.54,0.49,0.9c1.25,1.57,0.87,4.04,0.87,4.04
	S42.18,16.89,39.66,14.79z"/>
<path fill="#97C11D" d="M37.86,20.2c-0.27-0.86-1.01-1.47-1.93-1.41c-1.02,0.06-1.87,0.95-1.74,1.97c0.06,0.48,0.22,0.74,0.58,1.24
	c1.56,2.19,0.87,5.46,0.87,5.46S39.1,24.76,37.86,20.2z"/>
<path fill="#75B729" d="M35.33,18.92c-0.71,0.34-1.25,1.03-1.14,1.84c0.06,0.48,0.22,0.74,0.58,1.24c1.56,2.19,0.87,5.46,0.87,5.46
	S38.64,21.71,35.33,18.92z"/>
<path fill="#04BAEE" d="M42.93,24.42c-0.05-1.02-0.71-1.89-1.73-2.08c-1.14-0.21-2.32,0.54-2.45,1.7c-0.06,0.54,0.04,0.88,0.3,1.52
	c1.12,2.83-0.53,6.24-0.53,6.24S43.06,29.77,42.93,24.42z"/>
<path fill="#00B0EA" d="M40.14,22.41c-0.69,0.33-1.3,0.84-1.39,1.63c-0.06,0.54,0.04,0.88,0.3,1.52c1.12,2.83-0.53,6.24-0.53,6.24
	S43.39,26.94,40.14,22.41z"/>
<path fill="#005CA8" d="M33.13,32.18c-2.42,4.65-7.31,7.8-12.91,7.8c-8.06,0-14.59-6.53-14.59-14.59c0-8.05,6.53-14.58,14.59-14.58
	c3.63,0,6.56,1.53,7.57,1.96c8.15,3.43,10.31-4.87,6.76-8.12c-0.42-0.38-0.81-0.72-1.31-1.04C30.07,1.6,26.3,0.5,22.28,0.5
	C10.75,0.5,1.4,9.85,1.4,21.38c0,11.52,9.35,20.87,20.88,20.87c5.74,0,11.05-2.2,14.71-6.07C40.48,32.5,35.73,27.19,33.13,32.18z"/>
<path fill="#009EE2" d="M37.33,35.77c1.06-1.53,1.47-3.4,0.04-4.84c-1.22-1.22-3.39-1.25-4.47,0.09c-0.33,0.41-0.61,1.25-0.87,2.12
	c-3.4,9.36-14.26,8.62-14.26,8.62S29.49,45.13,37.33,35.77z"/>
<path fill="#F08700" d="M41.67,15.61c-0.23-0.64-0.82-1.06-1.5-0.98c-0.76,0.09-1.36,0.79-1.22,1.55c0.07,0.35,0.19,0.54,0.49,0.9
	c1.25,1.57,0.87,4.04,0.87,4.04S42.78,18.96,41.67,15.61z"/>
<path fill="#EB6507" d="M39.66,14.79c-0.5,0.25-0.82,0.81-0.71,1.39c0.07,0.35,0.19,0.54,0.49,0.9c1.25,1.57,0.87,4.04,0.87,4.04
	S42.18,16.89,39.66,14.79z"/>
<path fill="#C7D300" d="M37.86,20.2c-0.27-0.86-1.01-1.47-1.93-1.41c-1.02,0.06-1.87,0.95-1.74,1.97c0.06,0.48,0.22,0.74,0.58,1.24
	c1.56,2.19,0.87,5.46,0.87,5.46S39.1,24.76,37.86,20.2z"/>
<path fill="#94C01E" d="M35.33,18.92c-0.71,0.34-1.25,1.03-1.14,1.84c0.06,0.48,0.22,0.74,0.58,1.24c1.56,2.19,0.87,5.46,0.87,5.46
	S38.64,21.71,35.33,18.92z"/>
<path fill="#5AC4F1" d="M42.93,24.42c-0.05-1.02-0.71-1.89-1.73-2.08c-1.14-0.21-2.32,0.54-2.45,1.7c-0.06,0.54,0.04,0.88,0.3,1.52
	c1.12,2.83-0.53,6.24-0.53,6.24S43.06,29.77,42.93,24.42z"/>
<path fill="#00A6E6" d="M40.14,22.41c-0.69,0.33-1.3,0.84-1.39,1.63c-0.06,0.54,0.04,0.88,0.3,1.52c1.12,2.83-0.53,6.24-0.53,6.24
	S43.39,26.94,40.14,22.41z"/>
<path fill="#154093" d="M33.75,33.31c-0.53-1.26,0.04-2.65,0.07-2.64c0.02,0.01-0.13,0.43-0.69,1.51c-2.42,4.65-7.31,7.8-12.91,7.8
	c-8.06,0-14.59-6.53-14.59-14.59c0-8.05,6.53-14.58,14.59-14.58c3.63,0,6.56,1.53,7.57,1.96c4.13,1.74,6.73,0.46,7.82-1.64
	c-3.35-3.81-8.26-6.21-13.73-6.21c-10.08,0-18.26,8.17-18.26,18.26c0,9.39,7.01,17.77,16.18,17.77C29,40.95,32.17,32.34,33.75,33.31
	z"/>
<path fill="#94C01E" d="M37.33,35.77c1.06-1.53,1.47-3.4,0.04-4.84c-1.22-1.22-3.39-1.25-4.47,0.09c-0.33,0.41-0.61,1.25-0.87,2.12
	c-3.4,9.36-14.26,8.62-14.26,8.62S29.49,45.13,37.33,35.77z"/>
<path fill="#50AD31" d="M36.64,30.4c-1.23-0.65-2.85-0.48-3.74,0.62c-0.33,0.41-0.61,1.25-0.87,2.12
	c-3.4,9.36-14.26,8.62-14.26,8.62S32.34,44.66,36.64,30.4z"/>
<path fill-rule="evenodd" clip-rule="evenodd" fill="#154093" d="M74.13,10.77c1.06,0-2.33,9.93-8.27,16.45
	C67.71,20.58,72.01,10.77,74.13,10.77z M61.1,12.72c2.81,0,1.13,4.36-1.68,5.06c-1.58,0.38-2.95-0.02-4.49-0.37
	C56.56,14.7,58.72,12.72,61.1,12.72z M70.13,30.46c-0.59,0.59-3.85,2.74-4.57,2.74c-0.73,0-0.73-1.5-0.26-3.73
	c7.41-7.72,13.11-20.38,9.03-20.38c-4.68,0-10.42,13.39-11.31,20.79c-2.26,1.76-4.77,2.9-7.48,2.9c-4.85,0-4.25-8.44-1.17-14.37
	c3.04,1.02,8.21,2.61,9.89-3.56c0.79-2.9-1.9-4.03-3.19-4.03c-3.91,0-7.18,2.66-9.38,6.22c-2.72,0.08-3.78,1.2-3.78,1.2
	c-0.3,0.37,0.05,0.96,0.45,0.58c0.25-0.23,1.3-0.74,2.79-0.85c-3.92,7.23-3.63,17.33,4.07,17.33c2.46,0,5.12-1.41,7.68-3.57
	c0.01,1.79,0.48,2.93,1.55,2.93c2.42,0,4.99-2.52,5.88-3.36C70.33,31.3,70.72,29.87,70.13,30.46z"/>
<path fill-rule="evenodd" clip-rule="evenodd" fill="#154093" d="M77.93,20.98c3.15,0-1.58,6.36-5.02,6.79
	C73.81,24.51,76,20.98,77.93,20.98z M79.06,30.81c-0.91,1.11-3.65,2.42-4.59,2.42c-1.93,0-2.28-2.12-1.77-4.6
	c10.54-2.74,8.57-9.18,5.58-9.18c-7.46,0-12.69,15.41-4.6,15.41c2.67,0,5.38-2.97,5.66-3.31C79.76,31.03,79.63,30.12,79.06,30.81z"
	/>
<path fill-rule="evenodd" clip-rule="evenodd" fill="#154093" d="M83.06,32.54c-2.42,0,0.69-11.33,4.69-11.33
	C90.42,21.21,87.09,32.54,83.06,32.54z M105.58,31.84c-0.35,0.35-1.93,1.08-2.27,0.71c-0.55-0.59,4.8-13.18,0.59-13.15
	c-3.11,0.03-6.42,4.64-6.42,4.64l-0.04,0.21c0.57-2.5,0.76-5.63-2.13-4.9c-0.28,0.08-0.38,0.65,0,0.79
	c1.33,0.51-1.06,6.55-2.14,10.88c-0.97,0.62-2.93,1.81-3.74,1.81c-1.08,0,2.91-12.22,3.21-12.81c0.3-0.59-0.3-0.74-1.09-0.69
	c0,0-0.79,0.05-0.98,0.94c-0.02,0.08-0.08,0.27-0.16,0.55c-0.21-0.3-1.04-1.29-2.51-1.29c-5.97,0-11.75,15.23-4.24,15.23
	c0.69,0,2.79-1.04,4.19-2.56c-0.21,1.67-0.11,2.56,0.59,2.56c0.95,0,2.73-1.04,4.42-2.35c-0.32,1.68-0.27,2.32,0.57,2.32
	c1.43,0,1.26-1.93,2.54-5.35c1.41-2.88,4.17-7.42,6.1-7.51c2.91-0.13-3.55,12.84-1.47,12.84c1.8,0,5.01-2.05,5.42-2.47
	C106.73,31.51,105.92,31.5,105.58,31.84z"/>
<path fill="#94C01E" d="M107.6,31.52c0,0-0.35-0.59-0.99,0.05c-0.64,0.64,0.25,3.21,2.81,3.21c2.57,0,4.89-3.63,2.92-12.59
	c-2.24-10.16,3.99-9.97,3.99-9.97c1.19,0.05,1.59-2.47-0.04-2.47c0,0-7.87-0.08-5.46,12.49c2.32,12.1-1.51,10.91-1.51,10.91
	C108.58,33.15,107.6,31.52,107.6,31.52z"/>
<path fill="#94C01E" d="M117.96,19.23c0,0-1.27,13.56,0.65,13.56c1.81,0,1.92-13.19,2.12-13.68c0.2-0.5,1.5-0.76,1.58,0.05
	c0.08,0.82,0.65,15.63-4.1,15.6c-4.19-0.03-2.12-15.43-1.97-15.87C116.38,18.44,117.92,18.34,117.96,19.23z"/>
<path fill="#94C01E" d="M125.57,19.26c0,0-0.74,14.26-0.84,14.71c-0.1,0.44-1.63,0.89-1.73,0c-0.1-0.89,0.79-12.15,0.64-13.92
	C123.49,18.27,125.62,18.66,125.57,19.26z"/>
<path fill="#94C01E" d="M132.85,18.42l-6.12,0.29c0,0-0.4,0.1-0.45,0.35c-0.05,0.25-0.39,0.89,0.5,0.99
	c0.32,0.03,1.16,0.06,2.12,0.07c0.12,1.99-0.74,12.97-0.64,13.85c0.1,0.89,1.63,0.44,1.72,0c0.09-0.38,0.64-10.76,0.8-13.85
	c1.07-0.02,1.98-0.06,2.14-0.15C134.01,19.4,133.93,18.27,132.85,18.42z"/>
<path fill-rule="evenodd" clip-rule="evenodd" fill="#666666" d="M50.44,47.3h1.68c0.53,0,0.92,0.14,1.19,0.41
	c0.26,0.27,0.4,0.61,0.4,1.02s-0.14,0.74-0.4,1.01c-0.27,0.27-0.66,0.4-1.19,0.4h-1.68V47.3z M52.12,50.79
	c0.67,0,1.19-0.17,1.56-0.53c0.36-0.36,0.55-0.84,0.55-1.44c0-0.59-0.19-1.06-0.55-1.43c-0.37-0.36-0.89-0.54-1.56-0.54h-2.2v6.75
	h0.52v-2.81H52.12z"/>
<path fill-rule="evenodd" clip-rule="evenodd" fill="#666666" d="M57.43,48.61c-0.04,0-0.09,0.01-0.15,0.03
	c-0.05,0.01-0.12,0.01-0.18,0.01c-0.32,0-0.6,0.08-0.83,0.24c-0.23,0.15-0.41,0.37-0.55,0.65v-0.05l-0.07-0.84H55.2v4.95h0.52v-3.4
	c0.09-0.34,0.24-0.61,0.45-0.8c0.21-0.2,0.49-0.3,0.82-0.3h0.38L57.43,48.61z"/>
<path fill-rule="evenodd" clip-rule="evenodd" fill="#666666" d="M58.58,51.05c0-0.54,0.13-1,0.41-1.38
	c0.28-0.38,0.67-0.57,1.16-0.57c0.5,0,0.88,0.19,1.16,0.57c0.28,0.38,0.43,0.84,0.43,1.38v0.15c0,0.55-0.15,1.01-0.43,1.39
	c-0.28,0.38-0.66,0.56-1.15,0.56c-0.5,0-0.89-0.18-1.17-0.56c-0.28-0.38-0.41-0.84-0.41-1.39V51.05z M58.05,51.2
	c0,0.71,0.19,1.28,0.58,1.73c0.38,0.45,0.89,0.67,1.53,0.67c0.63,0,1.14-0.22,1.52-0.67c0.38-0.45,0.58-1.02,0.58-1.73v-0.15
	c0-0.7-0.2-1.28-0.58-1.73c-0.39-0.44-0.89-0.67-1.53-0.67c-0.63,0-1.14,0.23-1.52,0.67c-0.39,0.45-0.58,1.03-0.58,1.73V51.2z"/>
<path fill-rule="evenodd" clip-rule="evenodd" fill="#666666" d="M63.91,52.6c-0.23-0.36-0.35-0.82-0.35-1.38v-0.19
	c0-0.55,0.12-1.01,0.35-1.37c0.24-0.37,0.62-0.56,1.12-0.56c0.36,0,0.66,0.12,0.92,0.34c0.24,0.23,0.37,0.54,0.37,0.92h0.47
	l0.01-0.03c0-0.5-0.16-0.91-0.5-1.22c-0.34-0.31-0.76-0.46-1.27-0.46c-0.63,0-1.12,0.23-1.47,0.67c-0.36,0.45-0.53,1.02-0.53,1.71
	v0.19c0,0.69,0.17,1.26,0.53,1.71c0.35,0.45,0.84,0.67,1.47,0.67c0.47,0,0.89-0.15,1.25-0.44c0.35-0.3,0.52-0.66,0.52-1.1
	l-0.01-0.04h-0.47c0,0.36-0.13,0.64-0.39,0.83c-0.26,0.2-0.56,0.3-0.9,0.3C64.53,53.15,64.15,52.97,63.91,52.6z"/>
<path fill-rule="evenodd" clip-rule="evenodd" fill="#666666" d="M70.5,49.51c0.22,0.28,0.33,0.62,0.33,1.05v0.1h-2.72l-0.01-0.02
	c0.04-0.44,0.19-0.81,0.46-1.1c0.26-0.29,0.59-0.44,0.99-0.44C69.96,49.1,70.28,49.24,70.5,49.51z M70.57,53.42
	c0.27-0.11,0.5-0.26,0.66-0.44l-0.22-0.36c-0.17,0.16-0.37,0.29-0.61,0.39c-0.24,0.1-0.51,0.14-0.8,0.14
	c-0.48,0-0.86-0.18-1.14-0.53c-0.27-0.36-0.4-0.81-0.4-1.36v-0.14h3.3V50.7c0-0.62-0.16-1.12-0.47-1.49
	c-0.32-0.37-0.76-0.56-1.34-0.56c-0.57,0-1.06,0.23-1.44,0.67c-0.39,0.45-0.58,1.02-0.58,1.7v0.25c0,0.68,0.19,1.24,0.57,1.68
	c0.38,0.43,0.88,0.65,1.5,0.65C69.98,53.6,70.3,53.54,70.57,53.42z"/>
<path fill-rule="evenodd" clip-rule="evenodd" fill="#666666" d="M74.81,52.9c-0.22,0.17-0.52,0.25-0.9,0.25
	c-0.35,0-0.66-0.08-0.92-0.23c-0.26-0.16-0.4-0.4-0.41-0.75h-0.49v0.03c-0.03,0.38,0.13,0.71,0.46,0.99
	c0.33,0.28,0.79,0.41,1.36,0.41c0.52,0,0.95-0.12,1.27-0.37c0.32-0.25,0.48-0.57,0.48-0.97c0-0.37-0.14-0.66-0.42-0.89
	c-0.29-0.22-0.71-0.39-1.26-0.52c-0.5-0.1-0.83-0.23-1-0.37s-0.25-0.33-0.25-0.54c0-0.23,0.09-0.42,0.29-0.59s0.49-0.25,0.87-0.25
	c0.36,0,0.66,0.1,0.88,0.3c0.23,0.19,0.34,0.42,0.34,0.68h0.49l0.01-0.03c0.01-0.39-0.14-0.73-0.46-0.99
	c-0.32-0.27-0.74-0.41-1.26-0.41c-0.51,0-0.91,0.13-1.22,0.38s-0.46,0.56-0.46,0.92c0,0.37,0.14,0.66,0.41,0.87
	c0.27,0.2,0.7,0.36,1.26,0.47c0.48,0.11,0.81,0.24,0.99,0.41c0.18,0.17,0.27,0.36,0.27,0.59S75.03,52.73,74.81,52.9z"/>
<path fill-rule="evenodd" clip-rule="evenodd" fill="#666666" d="M77.03,51.05c0-0.54,0.13-1,0.41-1.38
	c0.28-0.38,0.67-0.57,1.16-0.57c0.5,0,0.88,0.19,1.16,0.57c0.28,0.38,0.43,0.84,0.43,1.38v0.15c0,0.55-0.15,1.01-0.43,1.39
	c-0.28,0.38-0.66,0.56-1.15,0.56c-0.5,0-0.89-0.18-1.17-0.56c-0.28-0.38-0.41-0.84-0.41-1.39V51.05z M76.5,51.2
	c0,0.71,0.19,1.28,0.58,1.73c0.38,0.45,0.89,0.67,1.53,0.67c0.63,0,1.14-0.22,1.52-0.67c0.38-0.45,0.58-1.02,0.58-1.73v-0.15
	c0-0.7-0.2-1.28-0.58-1.73c-0.39-0.44-0.89-0.67-1.53-0.67c-0.63,0-1.14,0.23-1.52,0.67c-0.39,0.45-0.58,1.03-0.58,1.73V51.2z"/>
<path fill-rule="evenodd" clip-rule="evenodd" fill="#666666" d="M84.26,52.9c-0.22,0.17-0.52,0.25-0.9,0.25
	c-0.35,0-0.66-0.08-0.92-0.23c-0.26-0.16-0.4-0.4-0.41-0.75h-0.49v0.03c-0.03,0.38,0.13,0.71,0.46,0.99
	c0.33,0.28,0.79,0.41,1.36,0.41c0.52,0,0.95-0.12,1.27-0.37c0.32-0.25,0.48-0.57,0.48-0.97c0-0.37-0.14-0.66-0.42-0.89
	c-0.29-0.22-0.72-0.39-1.26-0.52c-0.5-0.1-0.83-0.23-1-0.37c-0.17-0.14-0.25-0.33-0.25-0.54c0-0.23,0.09-0.42,0.29-0.59
	c0.2-0.17,0.49-0.25,0.87-0.25c0.36,0,0.66,0.1,0.88,0.3c0.23,0.19,0.34,0.42,0.34,0.68h0.49l0.01-0.03
	c0.01-0.39-0.14-0.73-0.46-0.99c-0.32-0.27-0.74-0.41-1.26-0.41c-0.51,0-0.91,0.13-1.22,0.38s-0.46,0.56-0.46,0.92
	c0,0.37,0.14,0.66,0.41,0.87c0.27,0.2,0.7,0.36,1.26,0.47c0.48,0.11,0.81,0.24,0.99,0.41c0.18,0.17,0.27,0.36,0.27,0.59
	S84.48,52.73,84.26,52.9z"/>
<line fill-rule="evenodd" clip-rule="evenodd" fill="none" stroke="#666666" stroke-width="0.45" stroke-linecap="round" stroke-linejoin="round" stroke-miterlimit="10" x1="91.17" y1="51.12" x2="99.28" y2="51.12"/>
<line fill-rule="evenodd" clip-rule="evenodd" fill="none" stroke="#666666" stroke-width="0.45" stroke-linecap="round" stroke-linejoin="round" stroke-miterlimit="10" x1="35.38" y1="51.12" x2="43.48" y2="51.12"/>
<rect id="_x3C_Slice_x3E__1_" fill="none" width="134" height="55"/>
</svg>
