<?xml version="1.0" standalone="no"?>
<!DOCTYPE svg PUBLIC "-//W3C//DTD SVG 1.1//EN" "http://www.w3.org/Graphics/SVG/1.1/DTD/svg11.dtd" >
<svg xmlns="http://www.w3.org/2000/svg">
<metadata>Generated by IcoMoon</metadata>
<defs>
<font id="icomoon" horiz-adv-x="1024">
<font-face units-per-em="1024" ascent="960" descent="-64" />
<missing-glyph horiz-adv-x="1024" />
<glyph unicode="&#x20;" horiz-adv-x="512" d="" />
<glyph unicode="&#xe900;" glyph-name="venta_directa" horiz-adv-x="951" d="M564.663 475.794l187.977 182.857c4.389 4.389 9.509 6.583 14.629 8.046 7.314 2.194 14.629 4.389 21.943 4.389 32.914 0 59.977-28.526 59.977-62.903v-241.371c0-21.211-10.24-39.497-25.6-50.469l39.497-282.331c2.194-16.823-9.509-32.914-25.6-35.109-16.823-2.194-32.183 9.509-34.377 26.331l-21.211 157.257-38.766-163.84c-3.657-14.629-15.36-24.137-29.257-24.137-2.194 0-4.389 0-7.314 0.731-16.091 4.389-25.6 21.211-21.943 38.034l67.291 285.257c-13.897 11.703-22.674 28.526-22.674 48.274v183.589l-123.611-119.954c-5.851-5.12-13.166-8.046-20.48-8.046-8.046 0-16.091 2.926-21.943 9.509-11.703 12.434-10.971 32.183 1.463 43.886v0zM789.211 725.211c-51.2 0-92.16 43.154-92.16 95.817s40.96 95.086 92.16 95.086c51.2 0 92.16-42.423 92.16-95.086s-40.96-95.817-92.16-95.817v0zM343.771 431.909c-5.851-6.583-13.897-9.509-21.943-9.509-7.314 0-14.629 2.926-20.48 8.046l-123.611 119.954v-183.589c0-19.749-8.777-36.571-22.674-48.274l67.291-285.257c3.657-16.823-5.851-33.646-21.943-38.034-2.926-0.731-5.12-0.731-7.314-0.731-13.897 0-25.6 9.509-29.257 24.137l-38.766 163.84-21.211-157.257c-2.194-16.823-17.554-28.526-34.377-26.331-16.091 2.194-27.794 18.286-25.6 35.109l39.497 282.331c-15.36 10.971-25.6 29.257-25.6 50.469v241.371c0 34.377 27.063 62.903 59.977 62.903 7.314 0 14.629-2.194 21.943-4.389 5.12-1.463 10.24-3.657 14.629-8.046l187.977-182.857c12.434-11.703 13.166-31.451 1.463-43.886v0zM25.6 821.029c0 52.663 40.96 95.086 92.16 95.086s92.16-42.423 92.16-95.086c0-52.663-40.96-95.817-92.16-95.817s-92.16 43.154-92.16 95.817v0zM433.737 595.017v-68.023h-39.497v68.023h-27.794l48.274 58.514 47.543-59.246c0 0 0 0.731-28.526 0.731v0zM498.103 729.6h-68.023v-35.109h-31.451v35.109h-68.754c-24.137 0-44.617-21.211-44.617-46.811v-108.983l77.531-74.606c5.12-5.12 9.509-10.971 12.434-17.554h122.88c24.869 0 45.349 21.211 45.349 46.811v154.331c0 25.6-20.48 46.811-45.349 46.811v0z" />
<glyph unicode="&#xe901;" glyph-name="subir_foto" d="M542.72 693.76h-57.173v-202.24h-201.387v-57.173h201.387v-201.387h57.173v201.387h202.24v57.173h-202.24zM513.707 74.24c-214.187 0-388.267 174.080-388.267 388.267 0 215.040 174.080 389.12 388.267 389.12 215.040 0 389.12-174.080 389.12-389.12 0-214.187-174.080-388.267-389.12-388.267v0zM513.707 924.16c-254.293 0-459.947-206.507-459.947-461.653 0-254.293 205.653-460.8 459.947-460.8 255.147 0 460.8 206.507 460.8 460.8 0 255.147-205.653 461.653-460.8 461.653v0z" />
<glyph unicode="&#xe902;" glyph-name="servicios" horiz-adv-x="832" d="M108.8 769.92c0-12.8-9.6-23.68-22.4-23.68s-22.4 10.88-22.4 23.68c0 12.8 9.6 23.040 22.4 23.040s22.4-10.24 22.4-23.040v0zM181.76 769.92c0-12.8-10.24-23.68-22.4-23.68-12.8 0-23.040 10.88-23.040 23.68s10.24 23.040 23.040 23.040c12.16 0 22.4-10.24 22.4-23.040v0zM593.92 769.92c0-12.8-10.24-23.68-22.4-23.68-12.8 0-23.040 10.88-23.040 23.68s10.24 23.040 23.040 23.040c12.16 0 22.4-10.24 22.4-23.040v0zM666.88 769.92c0-12.8-10.24-23.68-23.040-23.68-12.16 0-22.4 10.88-22.4 23.68s10.24 23.040 22.4 23.040c12.8 0 23.040-10.24 23.040-23.040v0zM739.2 769.92c0-12.8-9.6-23.68-22.4-23.68s-22.4 10.88-22.4 23.68c0 12.8 9.6 23.040 22.4 23.040s22.4-10.24 22.4-23.040v0zM401.28 504.96c88.32 0 159.36-73.6 159.36-164.48v-3.2c-7.040-6.4-15.36-11.52-29.44-11.52-16.64 0-24.96 7.68-32.64 14.72-8.32 7.68-16 14.72-31.36 14.72-16 0-23.68-7.040-31.36-14.72-8.32-7.040-16.64-14.72-33.28-14.72s-24.96 7.68-33.28 14.72c-7.68 7.68-15.36 14.72-31.36 14.72-15.36 0-23.040-7.040-31.36-14.72-7.68-7.040-16-14.72-33.28-14.72-14.72 0-23.040 6.4-30.72 13.44v1.28c0 90.88 71.040 164.48 158.72 164.48v0zM401.28 134.4c110.72 0 200.32 92.8 200.32 206.080 0 113.92-89.6 206.72-200.32 206.72-110.080 0-199.68-92.8-199.68-206.72 0-113.28 89.6-206.080 199.68-206.080v0zM401.28 593.92c135.68 0 246.4-113.28 246.4-253.44 0-139.52-110.72-252.8-246.4-252.8-135.040 0-245.76 113.28-245.76 252.8 0 140.16 110.72 253.44 245.76 253.44v0zM12.8-41.6h777.6v764.8h-777.6v-764.8zM12.8 908.8h777.6v-82.56h-777.6v82.56z" />
<glyph unicode="&#xe903;" glyph-name="productos" horiz-adv-x="410" d="M109.056 931.84h188.928v-87.040h-188.928v87.040zM298.496 779.264h-189.952c-59.904-33.28-100.864-97.28-100.864-171.52v-12.8h391.68v12.8c0 74.24-40.96 138.24-100.864 171.52v0zM7.68 529.408h391.68v-65.024h-391.68v65.024zM7.68 398.848h391.68v-65.024h-391.68v65.024zM7.68 268.288h391.68v-327.168h-391.68v327.168z" />
<glyph unicode="&#xe904;" glyph-name="ord_recogidas" horiz-adv-x="951" d="M703.634 529.92l-122.88 65.829-58.514-124.343 38.766-17.554 24.869 53.394 46.080-135.314 43.886 14.629-46.080 135.314 53.394-28.526 20.48 36.571zM751.177 727.406l114.834-340.114c2.926-7.314-1.463-15.36-8.777-17.554l-361.326-116.297c-7.314-2.926-15.36 1.463-18.286 8.777l-114.103 340.114c-2.926 7.314 1.463 14.629 8.777 16.823l361.326 117.029c7.314 2.194 15.36-1.463 17.554-8.777v0zM454.217 115.931c-9.509 28.526-40.96 43.886-70.217 34.377-28.526-8.777-44.617-39.497-35.109-68.023s40.96-43.886 70.217-34.377c29.257 9.509 44.617 39.497 35.109 68.023v0zM506.88 132.754c19.017-56.32-12.434-117.76-70.217-136.777-58.514-18.286-120.686 12.434-140.434 69.486-19.017 56.32 12.434 117.76 70.949 136.777 57.783 18.286 120.686-12.434 139.703-69.486v0zM844.069 298.057l-337.92-108.983c11.703-13.897 21.211-29.257 27.794-47.543v-1.463l328.411 105.326c14.629 5.12 22.674 20.48 17.554 35.109-5.12 13.897-20.48 21.943-35.84 17.554v0zM30.72 777.874c-18.286 53.394 11.703 111.909 67.291 129.463 54.857 17.554 114.103-11.703 132.389-65.097l206.263-612.206c-19.017 5.12-39.497 5.851-59.977 2.194l-199.68 592.457c-8.777 24.869-35.84 38.766-61.44 29.989-25.6-8.046-39.497-35.109-31.451-59.977 5.12-14.629-2.926-29.989-17.554-34.377-14.629-5.12-30.72 2.926-35.84 17.554v0z" />
<glyph unicode="&#xe905;" glyph-name="ord_entregadas" d="M490.667 113.493c-198.827 0-360.107 161.28-360.107 360.107s161.28 360.107 360.107 360.107c198.827 0 360.107-161.28 360.107-360.107s-161.28-360.107-360.107-360.107v0zM490.667 934.4c-254.293 0-460.8-206.507-460.8-460.8s206.507-460.8 460.8-460.8c254.293 0 460.8 206.507 460.8 460.8s-206.507 460.8-460.8 460.8v0zM530.773 472.747v193.707c0 21.333-17.92 38.4-39.253 38.4s-39.253-17.067-39.253-38.4v-207.36c0-11.093 3.413-21.333 11.947-29.867l145.067-145.067c15.36-15.36 40.107-15.36 55.467 0s15.36 40.107 0 54.613l-133.973 133.973z" />
<glyph unicode="&#xe906;" glyph-name="ocultar" d="M1000.107 834.56l-110.080 110.080-386.56-386.56-386.56 386.56-110.080-110.080 386.56-386.56-386.56-386.56 110.080-110.080 386.56 386.56 386.56-386.56 110.080 110.080-386.56 386.56z" />
<glyph unicode="&#xe907;" glyph-name="info" horiz-adv-x="1117" d="M576.233 608.116c-38.167 0-63.302 26.996-62.371 60.509-0.931 34.444 24.204 60.509 63.302 60.509 38.167 0 62.371-26.065 63.302-60.509 0-33.513-25.135-60.509-64.233-60.509v0zM642.327 233.891c0-36.305-28.858-65.164-65.164-65.164s-65.164 28.858-65.164 65.164v262.516c0 36.305 28.858 65.164 65.164 65.164s65.164-28.858 65.164-65.164v-262.516zM932.771 808.262c-196.422 196.422-514.793 196.422-711.215 0s-196.422-514.793 0-711.215c196.422-196.422 514.793-196.422 711.215 0s196.422 514.793 0 711.215v0z" />
<glyph unicode="&#xe908;" glyph-name="generar_orden" d="M408.137 298.057l345.966 337.92-345.966-276.48v-61.44zM976.457 912.457l-259.657-921.6-272.091 184.32-206.994-184.32v307.2l-182.857 184.32 921.6 430.080z" />
<glyph unicode="&#xe909;" glyph-name="flecha_abajo" horiz-adv-x="1109" d="M997.547 452.267c0-232.96-188.587-421.547-421.547-421.547s-421.547 188.587-421.547 421.547c0 232.96 188.587 421.547 421.547 421.547s421.547-188.587 421.547-421.547v0zM76.8 452.267c0-275.627 223.573-499.2 499.2-499.2s499.2 223.573 499.2 499.2c0 275.627-223.573 499.2-499.2 499.2s-499.2-223.573-499.2-499.2v0zM366.933 536.747c-11.947-11.947-11.947-31.573 0-44.373l186.88-186.88c11.947-11.947 32.427-11.947 44.373 0l186.88 186.88c5.973 5.973 9.387 14.507 9.387 22.187s-3.413 16.213-9.387 22.187c-11.947 11.947-31.573 11.947-43.52 0l-165.547-165.547-165.547 165.547c-11.947 11.947-31.573 11.947-43.52 0v0z" />
<glyph unicode="&#xe90a;" glyph-name="flecha_azul_der" horiz-adv-x="559" d="M98.676 3.025c20.48-26.996 53.993-26.996 74.473 0l314.647 412.393c19.549 26.996 19.549 70.749 0 97.745l-314.647 412.393c-10.24 13.964-23.273 20.48-37.236 20.48-13.033 0-26.996-6.516-37.236-20.48-19.549-26.996-19.549-69.818 0-96.815l277.411-364.916-277.411-363.985c-19.549-26.996-19.549-69.818 0-96.815v0z" />
<glyph unicode="&#xe90b;" glyph-name="eliminar_producto" d="M654.507 673.28l-148.48-148.48-149.333 148.48-41.813-42.667 148.48-148.48-148.48-148.48 41.813-42.667 149.333 148.48 148.48-148.48 41.813 42.667-148.48 148.48 148.48 148.48zM506.027 76.8c-224.427 0-405.333 181.76-405.333 405.333s180.907 405.333 405.333 405.333c223.573 0 404.48-181.76 404.48-405.333s-180.907-405.333-404.48-405.333v0zM506.027 961.707c-265.387 0-480.427-214.187-480.427-479.573s215.040-480.427 480.427-480.427c264.533 0 479.573 215.040 479.573 480.427s-215.040 479.573-479.573 479.573v0z" />
<glyph unicode="&#xe90c;" glyph-name="eliminar_foto" horiz-adv-x="1117" d="M541.789 35.607c-233.658 0-423.564 189.905-423.564 423.564 0 234.589 189.905 424.495 423.564 424.495 234.589 0 424.495-189.905 424.495-424.495 0-233.658-189.905-423.564-424.495-423.564v0zM541.789 961.862c-277.411 0-501.76-224.349-501.76-502.691 0-277.411 224.349-501.76 501.76-501.76 278.342 0 503.622 224.349 503.622 501.76 0 278.342-225.28 502.691-503.622 502.691v0zM619.055 265.542h38.167v312.785h-38.167v-312.785zM523.171 265.542h38.167v312.785h-38.167v-312.785zM427.287 265.542h38.167v312.785h-38.167v-312.785zM695.389 285.091c0-29.789-6.516-58.647-38.167-58.647h-229.935c-31.651 0-38.167 28.858-38.167 58.647v312.785c0 6.516 0 13.033 0.931 19.549h304.407c0.931-6.516 1.862-13.033 1.862-19.549v-312.785h-0.931zM465.455 710.516c0 13.033 14.895 24.204 31.651 24.204h90.298c16.756 0 31.651-11.171 31.651-24.204v-14.895h-153.6v14.895zM772.655 695.622l-115.433 0.931v13.964c0 35.375-30.72 63.302-69.818 63.302h-90.298c-38.167 0-69.818-27.927-69.818-63.302v-14.895h-115.433v-78.196h39.098c0-6.516-0.931-13.033-0.931-19.549v-312.785c0-51.2 25.135-97.745 77.265-97.745h229.935c52.131 0 77.265 46.545 77.265 97.745v312.785c0 6.516-0.931 13.033-0.931 19.549h39.098v78.196z" />
<glyph unicode="&#xe90d;" glyph-name="menos" horiz-adv-x="1071" d="M279.273 479.185h502.691v-62.371h-502.691v62.371zM530.618 23.971c-234.124 0-424.029 189.905-424.029 424.029s189.905 424.029 424.029 424.029c234.124 0 424.029-189.905 424.029-424.029s-189.905-424.029-424.029-424.029v0zM530.618 950.691c-277.411 0-502.691-225.28-502.691-502.691s225.28-502.691 502.691-502.691c277.411 0 502.691 225.28 502.691 502.691s-225.28 502.691-502.691 502.691v0z" />
<glyph unicode="&#xe90e;" glyph-name="desplegar" horiz-adv-x="1092" d="M604.16 949.76h-122.88v-430.080h-430.080v-122.88h430.080v-430.080h122.88v430.080h430.080v122.88h-430.080z" />
<glyph unicode="&#xe90f;" glyph-name="cerrar_sesion" horiz-adv-x="1117" d="M779.171 722.618v173.149c0 27.927-22.342 50.269-49.338 50.269h-606.022c-26.996 0-49.338-22.342-49.338-50.269v-710.284c0-18.618 10.24-36.305 26.065-44.684l373.295-197.353c16.756-8.378 36.305 3.724 36.305 22.342v192.698h219.695c26.996 0 49.338 23.273 49.338 50.269v274.618h-98.676v-199.215c0-13.964-10.24-25.135-24.204-25.135h-145.222v426.356c0 18.618-11.171 36.305-26.065 44.684l-220.625 115.433h391.913c13.964 0 24.204-11.171 24.204-25.135v-98.676h98.676v0.931zM904.844 804.538l159.185-163.84c20.48-20.48 20.48-51.2 0-72.611l-159.185-162.909c-20.48-21.411-51.2-22.342-71.68-0.931-20.48 19.549-17.687 53.062 0.931 73.542l72.611 72.611h-279.273c-13.964 0-27.927 6.516-37.236 16.756-22.342 25.135-16.756 69.818 12.102 86.575 7.447 3.724 16.756 6.516 25.135 6.516h279.273c0 0-71.68 72.611-72.611 72.611-18.618 19.549-21.411 53.993-0.931 73.542 19.549 19.549 51.2 18.618 71.68-1.862v0z" />
<glyph unicode="&#xe910;" glyph-name="mas" horiz-adv-x="1071" d="M561.804 699.345h-62.371v-220.16h-220.16v-62.371h220.16v-220.16h62.371v220.16h220.16v62.371h-220.16zM530.618 23.971c-234.124 0-424.029 189.905-424.029 424.029s189.905 424.029 424.029 424.029c234.124 0 424.029-189.905 424.029-424.029s-189.905-424.029-424.029-424.029v0zM530.618 950.691c-277.411 0-502.691-225.28-502.691-502.691s225.28-502.691 502.691-502.691c277.411 0 502.691 225.28 502.691 502.691s-225.28 502.691-502.691 502.691v0z" />
<glyph unicode="&#xe911;" glyph-name="activar_cam" d="M503.467 13.653c-232.96 0-421.547 188.587-421.547 421.547s188.587 421.547 421.547 421.547c232.96 0 421.547-188.587 421.547-421.547s-188.587-421.547-421.547-421.547v0zM503.467 934.4c-275.627 0-499.2-223.573-499.2-499.2s223.573-499.2 499.2-499.2c275.627 0 499.2 223.573 499.2 499.2s-223.573 499.2-499.2 499.2v0zM503.467 497.493c-52.053 0-93.867-41.813-93.867-93.867 0-51.2 41.813-93.013 93.867-93.013s93.867 41.813 93.867 93.013c0 52.053-41.813 93.867-93.867 93.867v0zM503.467 279.040c-69.12 0-124.587 56.32-124.587 124.587 0 69.12 55.467 125.44 124.587 125.44s124.587-56.32 124.587-125.44c0-68.267-55.467-124.587-124.587-124.587v0zM721.92 559.787h-139.947c-7.68 0-14.507 28.16-16.213 31.573-3.413 5.973-13.653 30.72-30.72 30.72h-63.147c-17.067 0-27.307-24.747-30.72-30.72-1.707-3.413-8.533-31.573-16.213-31.573h-139.947c-17.067 0-30.72-13.653-30.72-30.72v-250.027c0-17.067 13.653-30.72 30.72-30.72h436.907c17.067 0 31.573 13.653 31.573 30.72v250.027c0 17.067-14.507 30.72-31.573 30.72v0z" />
<glyph unicode="&#xe913;" glyph-name="circular_lleno" horiz-adv-x="1092" d="M952.32 461.653c0-220.56-178.8-399.36-399.36-399.36s-399.36 178.8-399.36 399.36c0 220.56 178.8 399.36 399.36 399.36s399.36-178.8 399.36-399.36z" />
<glyph unicode="&#xe914;" glyph-name="check_vacio" d="M225.28 923.819h552.96c101.717 0 184.32-81.92 184.32-183.637v-553.643c0-101.717-82.603-184.32-184.32-184.32h-552.96c-101.717 0-184.32 82.603-184.32 184.32v553.643c0 101.717 82.603 183.637 184.32 183.637v0z" />
<glyph unicode="&#xe915;" d="M225.28 923.819h552.96c101.717 0 184.32-81.92 184.32-183.637v-553.643c0-101.717-82.603-184.32-184.32-184.32h-552.96c-101.717 0-184.32 82.603-184.32 184.32v553.643c0 101.717 82.603 183.637 184.32 183.637v0z" />
<glyph unicode="&#xe916;" d="M317.44 847.36h368.64c101.717 0 184.32-82.603 184.32-184.32v-368.64c0-101.717-82.603-184.32-184.32-184.32h-368.64c-101.717 0-184.32 82.603-184.32 184.32v368.64c0 101.717 82.603 184.32 184.32 184.32v0z" />
<glyph unicode="&#xe917;" d="M415.744 381.099l-98.304 97.621-61.44-61.44 160.427-153.6 331.093 368.64-62.123 61.44z" />
</font>
</defs>
</svg>
